<?xml version="1.0" standalone="no"?>
<!DOCTYPE svg PUBLIC "-//W3C//DTD SVG 20010904//EN"
 "http://www.w3.org/TR/2001/REC-SVG-20010904/DTD/svg10.dtd">
<svg version="1.0" xmlns="http://www.w3.org/2000/svg"
 width="560.000000pt" height="356.000000pt" viewBox="0 0 560.000000 356.000000"
 preserveAspectRatio="xMidYMid meet">

<g transform="translate(0.000000,356.000000) scale(0.100000,-0.100000)"
fill="#000000" stroke="none">
<path d="M1103 1775 c0 -850 3 -1548 7 -1550 11 -7 3269 -7 3279 0 5 2 8 700
8 1550 l0 1545 -1647 0 -1647 0 0 -1545z m3227 -5 l0 -1490 -1580 0 -1580 0 0
1490 0 1490 1580 0 1580 0 0 -1490z"/>
<path d="M3260 2507 c0 -275 -4 -467 -9 -465 -5 2 -27 27 -49 57 -106 142
-268 221 -452 222 -195 2 -361 -86 -487 -256 l-22 -30 0 468 -1 467 -35 0 -35
0 0 -720 0 -720 34 0 34 0 4 183 c4 178 4 183 34 247 96 203 332 327 553 290
107 -18 202 -69 287 -154 116 -117 143 -202 144 -443 l0 -123 35 0 35 0 0 719
0 719 -35 4 -35 4 0 -469z"/>
<path d="M1430 916 c0 -191 4 -296 10 -296 6 0 10 48 10 123 0 97 4 130 19
162 63 140 253 153 338 23 24 -36 27 -50 31 -174 3 -74 9 -134 13 -134 5 0 9
57 9 128 0 102 -4 135 -19 167 -64 139 -231 172 -343 67 l-48 -45 0 131 c0 76
-4 133 -10 137 -7 4 -10 -95 -10 -289z"/>
<path d="M2550 910 c0 -187 4 -290 10 -290 6 0 10 44 10 113 0 131 10 175 51
222 83 95 235 81 307 -28 25 -38 27 -49 30 -174 2 -73 8 -133 13 -133 5 0 9
57 9 128 0 102 -4 135 -19 167 -64 139 -231 172 -343 67 l-48 -45 0 132 c0 81
-4 131 -10 131 -6 0 -10 -103 -10 -290z"/>
<path d="M3660 1002 c0 -108 4 -212 10 -231 54 -188 312 -214 400 -40 37 72
21 189 -33 247 -46 50 -143 80 -201 64 -54 -15 -37 -27 38 -27 83 0 105 -11
160 -79 28 -34 31 -45 31 -105 0 -58 -4 -74 -28 -108 -94 -136 -302 -100 -346
62 -6 22 -11 123 -11 228 0 118 -4 187 -10 187 -6 0 -10 -73 -10 -198z"/>
<path d="M2137 1034 c-58 -18 -122 -80 -137 -133 -13 -48 -13 -281 0 -281 6 0
10 44 10 113 0 61 5 129 11 150 15 55 75 113 132 129 26 6 47 18 47 25 0 16
-2 16 -63 -3z"/>
<path d="M3100 913 c0 -120 2 -133 26 -182 62 -123 221 -157 328 -69 65 53 76
89 76 243 0 83 -4 135 -10 135 -6 0 -10 -46 -10 -119 0 -133 -9 -172 -54 -220
-71 -77 -190 -83 -270 -12 -41 36 -51 72 -56 210 -4 95 -9 136 -17 139 -10 3
-13 -27 -13 -125z"/>
</g>
</svg>
